<?xml version="1.0" standalone="no"?>
<!DOCTYPE svg PUBLIC "-//W3C//DTD SVG 20010904//EN"
 "http://www.w3.org/TR/2001/REC-SVG-20010904/DTD/svg10.dtd">
<svg version="1.0" xmlns="http://www.w3.org/2000/svg"
 width="415.000000pt" height="415.000000pt" viewBox="0 0 415.000000 415.000000"
 preserveAspectRatio="xMidYMid meet">
<metadata>
Created by potrace 1.11, written by Peter Selinger 2001-2013
</metadata>
<g transform="translate(0.000000,415.000000) scale(0.100000,-0.100000)"
fill="#000000" stroke="none">
<path d="M1830 4015 c-47 -7 -104 -16 -128 -19 -49 -8 -249 -66 -327 -95 -289
-108 -594 -326 -803 -574 -221 -262 -387 -617 -438 -942 -3 -16 -7 -41 -10
-55 -14 -62 -12 -439 2 -540 122 -899 831 -1596 1734 -1706 108 -13 411 -6
520 11 305 49 567 151 822 322 518 347 853 960 862 1580 9 587 -195 1081 -614
1491 -226 221 -596 424 -890 488 -44 10 -39 9 -78 18 -143 34 -489 45 -652 21z
m535 -690 c289 -18 521 -101 624 -223 115 -138 153 -354 88 -506 -76 -181
-258 -308 -546 -380 l-131 -33 97 -6 c191 -11 417 -93 530 -192 85 -75 166
-216 188 -330 17 -84 17 -214 1 -296 -53 -263 -243 -438 -569 -524 -183 -48
-198 -48 -1132 -42 l-280 2 0 39 c0 27 5 40 15 41 8 1 69 5 135 9 65 4 120 8
121 9 5 4 8 2336 4 2340 -5 4 -182 16 -242 17 -26 0 -28 3 -28 39 0 22 5 41
11 43 18 6 1001 0 1114 -7z"/>
<path d="M2108 3235 c-2 -2 -98 -13 -130 -15 -5 0 -8 -225 -8 -500 l0 -500 43
-1 c255 -9 382 23 491 125 97 92 140 217 140 411 -1 251 -117 415 -329 464
-44 10 -200 22 -207 16z"/>
<path d="M2003 2112 c-29 -3 -31 -6 -35 -47 -1 -24 -3 -295 -3 -602 l0 -558
40 -7 c44 -8 210 -10 265 -3 63 7 173 47 225 80 182 117 267 298 259 553 -9
302 -162 504 -430 568 -64 15 -243 24 -321 16z"/>
</g>
</svg>
